<svg width="14.000000" height="17.000000" viewBox="0 0 14 17" fill="none" xmlns="http://www.w3.org/2000/svg" xmlns:xlink="http://www.w3.org/1999/xlink">
	<desc>
			Created with Pixso.
	</desc>
	<defs/>
	<path id="Vector" d="M6.5 16.28C6.5 16.28 0 11.95 0 6.89C0 5.17 0.68 3.52 1.9 2.3C3.12 1.08 4.77 0.39 6.5 0.39C8.22 0.39 9.87 1.08 11.09 2.3C12.31 3.52 13 5.17 13 6.89C13 11.95 6.5 16.28 6.5 16.28Z" stroke="#FFFFFF" stroke-opacity="1.000000" stroke-width="1.000000" stroke-linejoin="round"/>
	<path id="Vector" d="M6.5 9.06C5.3 9.06 4.33 8.09 4.33 6.9C4.33 5.7 5.3 4.73 6.5 4.73C7.69 4.73 8.66 5.7 8.66 6.9C8.66 8.09 7.69 9.06 6.5 9.06Z" stroke="#FFFFFF" stroke-opacity="1.000000" stroke-width="1.000000" stroke-linejoin="round"/>
</svg>
